<svg width="1080" height="1920" viewBox="0 0 1080 1920" fill="none" xmlns="http://www.w3.org/2000/svg">
  <defs>
    <linearGradient id="mainGradient" x1="0%" y1="0%" x2="100%" y2="100%">
      <stop offset="0%" style="stop-color:#FFFFFF;stop-opacity:1" />
      <stop offset="30%" style="stop-color:#F8F9FA;stop-opacity:1" />
      <stop offset="70%" style="stop-color:#F15800;stop-opacity:0.8" />
      <stop offset="100%" style="stop-color:#E83E01;stop-opacity:0.9" />
    </linearGradient>
    <radialGradient id="circle1" cx="50%" cy="50%" r="50%">
      <stop offset="0%" style="stop-color:#FFFFFF;stop-opacity:0.15" />
      <stop offset="100%" style="stop-color:#FFFFFF;stop-opacity:0" />
    </radialGradient>
    <radialGradient id="circle2" cx="50%" cy="50%" r="50%">
      <stop offset="0%" style="stop-color:#F15800;stop-opacity:0.1" />
      <stop offset="100%" style="stop-color:#F15800;stop-opacity:0" />
    </radialGradient>
    <radialGradient id="circle3" cx="50%" cy="50%" r="50%">
      <stop offset="0%" style="stop-color:#E83E01;stop-opacity:0.08" />
      <stop offset="100%" style="stop-color:#E83E01;stop-opacity:0" />
    </radialGradient>
  </defs>
  
  <!-- Main gradient background -->
  <rect width="1080" height="1920" fill="url(#mainGradient)"/>
  
  <!-- Abstract circles -->
  <circle cx="940" cy="200" r="300" fill="url(#circle1)"/>
  <circle cx="140" cy="1500" r="200" fill="url(#circle2)"/>
  <circle cx="800" cy="1200" r="150" fill="url(#circle3)"/>
  
  <!-- Flowing waves -->
  <path d="M0 1600 Q270 1550 540 1600 T1080 1600 L1080 1920 L0 1920 Z" fill="rgba(241, 88, 0, 0.05)"/>
  <path d="M0 1700 Q360 1650 720 1700 T1080 1700 L1080 1920 L0 1920 Z" fill="rgba(232, 62, 1, 0.03)"/>
  
  <!-- Subtle mesh lines -->
  <g stroke="rgba(255,255,255,0.03)" stroke-width="1" fill="none">
    <line x1="0" y1="480" x2="1080" y2="480"/>
    <line x1="0" y1="960" x2="1080" y2="960"/>
    <line x1="0" y1="1440" x2="1080" y2="1440"/>
    <line x1="270" y1="0" x2="270" y2="1920"/>
    <line x1="540" y1="0" x2="540" y2="1920"/>
    <line x1="810" y1="0" x2="810" y2="1920"/>
  </g>
  
  <!-- Tech hexagon pattern -->
  <g fill="rgba(255,255,255,0.02)">
    <polygon points="200,100 230,115 230,145 200,160 170,145 170,115"/>
    <polygon points="600,300 630,315 630,345 600,360 570,345 570,315"/>
    <polygon points="900,800 930,815 930,845 900,860 870,845 870,815"/>
    <polygon points="300,1300 330,1315 330,1345 300,1360 270,1345 270,1315"/>
  </g>
</svg>
